<?xml version="1.0" encoding="utf-8"?>
<svg version="1.1" id="Layer_1" xmlns="http://www.w3.org/2000/svg" xmlns:xlink="http://www.w3.org/1999/xlink" x="0px" y="0px"
	 viewBox="0 0 212.5 152.3" style="enable-background:new 0 0 212.5 152.3;" xml:space="preserve">
<g>
	<g>
		<path d="M193.8,0.5H18.2C8.2,0.5,0,8.5,0,18.3v116.4c0,9.8,8.2,17.8,18.2,17.8h175.6c10,0,18.2-8,18.2-17.8V18.3
			C212,8.5,203.8,0.5,193.8,0.5z M200,134.7c0,3.2-2.8,5.8-6.2,5.8H18.2c-3.4,0-6.2-2.6-6.2-5.8V18.3c0-3.2,2.8-5.8,6.2-5.8h175.6
			c3.4,0,6.2,2.6,6.2,5.8V134.7z M77.7,76.1c0,15.7,12.8,28.5,28.5,28.5s28.5-12.8,28.5-28.5s-12.8-28.5-28.5-28.5
			C90.6,47.6,77.7,60.4,77.7,76.1z M106.2,59.6c9.1,0,16.5,7.4,16.5,16.5s-7.4,16.5-16.5,16.5s-16.5-7.4-16.5-16.5
			S97.2,59.6,106.2,59.6z M189.5,66.8l-77.1-50.6c-3.9-2.5-8.9-2.5-12.8,0L22.5,66.8l0,0c-3.3,2.2-5.2,5.8-5.2,9.7
			c0,3.9,2,7.6,5.3,9.7l77.1,50.5c1.9,1.3,4.2,1.9,6.4,1.9c2.2,0,4.4-0.6,6.4-1.9l77.1-50.5c3.3-2.2,5.3-5.8,5.3-9.7
			S192.8,69,189.5,66.8z M29.1,76.9L29.1,76.9L29.1,76.9L29.1,76.9z M106,126.6l-76.4-50L106,26.4l76.5,50.2L106,126.6z"/>
	</g>
</g>
</svg>
