<?xml version="1.0" encoding="utf-8"?>
<svg version="1.1" id="Layer_1" xmlns="http://www.w3.org/2000/svg" xmlns:xlink="http://www.w3.org/1999/xlink" x="0px" y="0px"
	 viewBox="0 0 212.3 152.2" style="enable-background:new 0 0 212.3 152.2;" xml:space="preserve">
<g>
	<g>
		<path d="M194.3,0H18.7C8.7,0,0.5,8,0.5,17.8v116.4c0,9.8,8.2,17.8,18.2,17.8h175.6c10,0,18.2-8,18.2-17.8V17.8
			C212.5,8,204.3,0,194.3,0z M12.5,17.8c0-3.2,2.8-5.8,6.2-5.8h78v57.4H12.5V17.8z M200.5,134.2c0,3.2-2.8,5.8-6.2,5.8H18.7
			c-3.4,0-6.2-2.6-6.2-5.8v-5.3h188V134.2z M200.5,116.9h-188v-11.8h188V116.9z M200.5,93.1h-188V81.4h84.1l0,0l103.9,0.1V93.1z
			 M200.5,69.5h-91.8V58.6h91.8V69.5z M200.5,46.6h-91.8V35.5h91.8V46.6z M200.5,23.5h-91.8V12h85.6c3.4,0,6.2,2.6,6.2,5.8
			L200.5,23.5L200.5,23.5z M30,19.5c-2.8,0-5,2.2-5,5s2.2,5,5,5s5-2.2,5-5S32.8,19.5,30,19.5z M80.5,20c-2.8,0-5,2.2-5,5s2.2,5,5,5
			s5-2.2,5-5S83.3,20,80.5,20z M55.2,20c-2.8,0-5,2.2-5,5s2.2,5,5,5s5-2.2,5-5S58,20,55.2,20z M30,50.1c-2.8,0-5,2.2-5,5s2.2,5,5,5
			s5-2.2,5-5S32.8,50.1,30,50.1z M55.2,50.1c-2.8,0-5,2.2-5,5s2.2,5,5,5s5-2.2,5-5S58,50.1,55.2,50.1z M80.5,50.1c-2.8,0-5,2.2-5,5
			s2.2,5,5,5s5-2.2,5-5S83.3,50.1,80.5,50.1z M42,34.8c-2.8,0-5,2.2-5,5s2.2,5,5,5s5-2.2,5-5S44.8,34.8,42,34.8z M68.2,34.8
			c-2.8,0-5,2.2-5,5s2.2,5,5,5s5-2.2,5-5S71,34.8,68.2,34.8z"/>
	</g>
</g>
<style>
	g {
		width: 100px;
		fill: white;
	}
</style>
</svg>